<svg xmlns="http://www.w3.org/2000/svg" viewBox="0 0 107.4 110.7"><defs><style>.cls-1{isolation:isolate;}.cls-2{fill:#403d57;}.cls-3,.cls-4,.cls-5{fill:#d8dfe9;}.cls-4{opacity:0.27;}.cls-4,.cls-5{mix-blend-mode:multiply;}.cls-5{opacity:0.44;}.cls-6{fill:#edf2f7;opacity:0.53;}</style></defs><g class="cls-1"><g id="Livello_2" data-name="Livello 2"><g id="OBJECTS"><path class="cls-2" d="M61,36a.5.5,0,0,1-.5-.5V13.9c0-.2,0-.3.1-.4L75,2.5a.5.5,0,1,1,.6.8L61.5,14.1V35.5A.6.6,0,0,1,61,36Z"/><path class="cls-2" d="M49.8,30.4a.5.5,0,0,1-.5-.5V18.1a.5.5,0,0,1,.5-.5.5.5,0,0,1,.5.5V29.9A.5.5,0,0,1,49.8,30.4Z"/><path class="cls-2" d="M27.6,34.8a.5.5,0,0,1-.5-.5V9.5a.5.5,0,0,1,1,0V34.3A.5.5,0,0,1,27.6,34.8Z"/><path class="cls-2" d="M32.2,45.9a.5.5,0,0,1-.4-.2L16.7,27.2c-.1-.1-.2-.2-.2-.3V8.4a.5.5,0,0,1,.5-.5.5.5,0,0,1,.5.5V26.7L32.6,45a.5.5,0,0,1-.1.7Z"/><path class="cls-2" d="M63,45.2l-.4-.2a.6.6,0,0,1,.1-.7L83.1,26.5,85.5,7.8a.4.4,0,0,1,.6-.4.5.5,0,0,1,.4.5L84.1,26.8l-.2.3-20.6,18Z"/><path class="cls-2" d="M84.4,38.5H69.8a.5.5,0,0,1-.5-.5.6.6,0,0,1,.5-.5H84.2l6.4-6.7a.5.5,0,0,1,.7.7l-6.5,6.9Z"/><path class="cls-2" d="M69.8,48.3a.5.5,0,0,1,0-1l26.3-.2a.5.5,0,0,1,.5.5.5.5,0,0,1-.5.5l-26.3.2Z"/><path class="cls-2" d="M103.8,62.5h-.3L88.4,52.9H66.8a.5.5,0,0,1-.5-.5.5.5,0,0,1,.5-.5h22L104,61.6c.3.1.3.4.2.7Z"/><path class="cls-2" d="M91.6,67.3H71.2a.5.5,0,0,1,0-1H91.6a.5.5,0,0,1,0,1Z"/><path class="cls-2" d="M105.3,65a1.9,1.9,0,0,1-1-.3,2,2,0,0,1-1-1.2,2.9,2.9,0,0,1,.2-1.6,2.6,2.6,0,0,1,1.3-1,3,3,0,0,1,1.6.2h0a2.4,2.4,0,0,1,.9,1.3,1.8,1.8,0,0,1-.2,1.6,2.2,2.2,0,0,1-1.2.9Zm0-3.1h-.2a1.3,1.3,0,0,0-.7.5,1.1,1.1,0,0,0-.1.8,1.2,1.2,0,0,0,.5.7h.8a1.8,1.8,0,0,0,.7-.5,2.5,2.5,0,0,0,.1-.8,1.8,1.8,0,0,0-.5-.7h-.6Z"/><path class="cls-2" d="M79.8,109.1a1.9,1.9,0,0,1-1-.3A2.1,2.1,0,0,1,78,106a2.1,2.1,0,0,1,2.9-.7h0a2.1,2.1,0,0,1,.7,2.8A2.2,2.2,0,0,1,79.8,109.1Zm0-3.1a1.2,1.2,0,0,0-.9.5,1.1,1.1,0,0,0,.4,1.5,1,1,0,0,0,1.4-.4,1.1,1.1,0,0,0-.3-1.5h-.6Z"/><path class="cls-2" d="M87.2,97.4l-1-.2a2.6,2.6,0,0,1-1-1.3,2.3,2.3,0,0,1,.3-1.6,1.6,1.6,0,0,1,1.2-.9,1.8,1.8,0,0,1,1.6.2h0a1.6,1.6,0,0,1,.9,1.2,1.8,1.8,0,0,1-.2,1.6,2,2,0,0,1-1.2,1Zm0-3.1H87a1.8,1.8,0,0,0-.7.5,1.2,1.2,0,0,0-.1.8,1.8,1.8,0,0,0,.5.7,1.1,1.1,0,0,0,.8.1,1.8,1.8,0,0,0,.7-.5,2.2,2.2,0,0,0,.1-.8,1.8,1.8,0,0,0-.5-.7h-.6Z"/><path class="cls-2" d="M58.5,110.7a1.9,1.9,0,0,1-1-.3,2.1,2.1,0,0,1,2.1-3.6h0a2,2,0,0,1,.7,2.8A1.9,1.9,0,0,1,58.5,110.7Zm.1-3.2a1.1,1.1,0,0,0-1,.6,1,1,0,0,0,.4,1.4,1,1,0,0,0,1.5-.4,1,1,0,0,0-.4-1.4Z"/><path class="cls-2" d="M64.5,106.1a1.9,1.9,0,0,1-1-.3,2,2,0,0,1-1-1.2,2.2,2.2,0,0,1,.3-1.6,2,2,0,0,1,2.8-.7h0a2,2,0,0,1-1.1,3.8Zm0-3.1a1.2,1.2,0,0,0-.9.5,1.1,1.1,0,0,0-.1.8,1.8,1.8,0,0,0,.5.7,1.1,1.1,0,1,0,1.1-1.9h-.6Z"/><path class="cls-2" d="M17.5,108.9a1.9,1.9,0,0,1-1-.3,2.1,2.1,0,0,1-.8-2.8,2.1,2.1,0,0,1,2.9-.8,2,2,0,0,1,.7,2.8,1.7,1.7,0,0,1-1.2,1Zm0-3.2a1.1,1.1,0,0,0-.9.6,1,1,0,0,0,.4,1.4.8.8,0,0,0,.8.1c.3,0,.5-.2.7-.5a1.9,1.9,0,0,0,.1-.8,1,1,0,0,0-.5-.6Z"/><path class="cls-2" d="M9,93.2a2.3,2.3,0,0,1-1.1-.3,2,2,0,0,1-.7-2.8,2.1,2.1,0,0,1,2.8-.8h0a2.2,2.2,0,0,1,.8,2.9A2.2,2.2,0,0,1,9,93.2Zm0-3.1a1.2,1.2,0,0,0-1,.5,1.1,1.1,0,0,0,.4,1.5,1.2,1.2,0,0,0,1.5-.4,1.1,1.1,0,0,0-.4-1.5Z"/><path class="cls-2" d="M2.1,65A2.3,2.3,0,0,1,1,64.7a2,2,0,0,1-.7-2.8,2.1,2.1,0,0,1,2.8-.8h0A2.2,2.2,0,0,1,3.9,64,2.2,2.2,0,0,1,2.1,65Zm0-3.1a1.2,1.2,0,0,0-1,.5,1.1,1.1,0,0,0,.4,1.5A1.1,1.1,0,0,0,3,63.5,1.1,1.1,0,0,0,2.6,62Z"/><path class="cls-2" d="M10.1,60.3l-1-.2a2.6,2.6,0,0,1-1-1.3,2.3,2.3,0,0,1,.2-1.6,1.8,1.8,0,0,1,1.3-.9,1.8,1.8,0,0,1,1.6.2,2.1,2.1,0,0,1,.7,2.8A2,2,0,0,1,10.1,60.3Zm0-3.1H9.8a1.5,1.5,0,0,0-.6.5.8.8,0,0,0-.1.8,1.2,1.2,0,0,0,.5.7,1,1,0,0,0,1.4-.4,1.1,1.1,0,0,0-.3-1.5h-.6Z"/><path class="cls-2" d="M42.6,104.5a1.8,1.8,0,0,1-1-.2,2.2,2.2,0,0,1-.8-2.9,2.2,2.2,0,0,1,2.9-.7h0a2.1,2.1,0,0,1,.7,2.8A2,2,0,0,1,42.6,104.5Zm0-3.1a1.1,1.1,0,0,0-.9.5,1.1,1.1,0,0,0,.4,1.5,1,1,0,0,0,1.4-.4,1,1,0,0,0-.3-1.4Z"/><path class="cls-2" d="M101.5,88.6l-1-.2a2.6,2.6,0,0,1-1-1.3,3,3,0,0,1,.2-1.6,2.1,2.1,0,0,1,2.9-.7h0a2,2,0,0,1,.7,2.8A2,2,0,0,1,101.5,88.6Zm0-3.1a1,1,0,0,0-1,1.3,1.8,1.8,0,0,0,.5.7,1.1,1.1,0,1,0,1.1-1.9h-.6Z"/><path class="cls-2" d="M86,7.7a1.6,1.6,0,0,1-1-.2,2.1,2.1,0,0,1-.8-2.9A2.1,2.1,0,0,1,87,3.9h0a2,2,0,0,1-1,3.8Zm0-3.1a1.1,1.1,0,0,0-.9.5,1.1,1.1,0,0,0,.4,1.5,1,1,0,0,0,1.4-.4,1.1,1.1,0,0,0-.4-1.5Z"/><path class="cls-2" d="M68.1,19.1a1.9,1.9,0,0,1-1-.3,2.2,2.2,0,0,1-.8-2.9,2.2,2.2,0,0,1,2.9-.7h0a2.1,2.1,0,0,1,.7,2.8A2.1,2.1,0,0,1,68.1,19.1Zm0-3.2a1.1,1.1,0,0,0-.9.6,1,1,0,0,0,.4,1.4,1.1,1.1,0,0,0,1.5-.4,1.1,1.1,0,0,0-.4-1.4Z"/><path class="cls-2" d="M34.3,14a1.7,1.7,0,0,1-1-.3,2,2,0,0,1-.8-2.8,2,2,0,0,1,2.8-.8,1.9,1.9,0,0,1,1,1.3,1.9,1.9,0,0,1-.2,1.5,1.9,1.9,0,0,1-1.3,1Zm0-3.2a1,1,0,0,0-.9.6,1,1,0,0,0,.4,1.4.8.8,0,0,0,.8.1.6.6,0,0,0,.6-.5.8.8,0,0,0,.1-.8.7.7,0,0,0-.5-.6Z"/><path class="cls-2" d="M17,8.9a1.9,1.9,0,0,1-1-.3,2.1,2.1,0,0,1-.8-2.8,2.6,2.6,0,0,1,1.3-1,2.3,2.3,0,0,1,1.6.2,2,2,0,0,1,.7,2.8A2,2,0,0,1,17,8.9Zm0-3.2h-.2a1.2,1.2,0,0,0-.7.5,1,1,0,0,0,.4,1.4A1,1,0,0,0,18,7.3a1.9,1.9,0,0,0,.1-.8,1.5,1.5,0,0,0-.5-.6h0Z"/><path class="cls-2" d="M4.2,40.1a1.9,1.9,0,0,1-1-.3,1.8,1.8,0,0,1-.9-1.2A1.8,1.8,0,0,1,2.5,37a2.1,2.1,0,0,1,2.8-.8A2.1,2.1,0,0,1,6,39.1a1.9,1.9,0,0,1-1.2.9ZM4.3,37H4a1.2,1.2,0,0,0-.7.5,1.1,1.1,0,0,0-.1.8,1.8,1.8,0,0,0,.5.7h.8a1.8,1.8,0,0,0,.7-.5,1.1,1.1,0,0,0-.4-1.5Z"/><path class="cls-2" d="M3.1,55.6a1.9,1.9,0,0,1-1-.3,2,2,0,0,1-.7-2.8,2.1,2.1,0,0,1,2.8-.8,2.6,2.6,0,0,1,1,1.3,2.3,2.3,0,0,1-.3,1.6,1.9,1.9,0,0,1-1.2.9Zm.1-3.1a1.2,1.2,0,0,0-1,.5,1.1,1.1,0,0,0,.4,1.5h.8a1.8,1.8,0,0,0,.7-.5,1.2,1.2,0,0,0,.1-.8,1.3,1.3,0,0,0-.5-.7Z"/><path class="cls-2" d="M27.6,9.2l-1-.2a2.2,2.2,0,0,1-.8-2.9,2.1,2.1,0,0,1,2.9-.7h0a2.1,2.1,0,0,1,.7,2.8,2.3,2.3,0,0,1-1.2,1Zm0-3.1a1.2,1.2,0,0,0-.9.5,1.1,1.1,0,0,0,.4,1.5,1,1,0,0,0,1.4-.4,1.1,1.1,0,0,0-.3-1.5h-.6Z"/><path class="cls-2" d="M97.6,49.6l-1-.2a2.1,2.1,0,0,1-.8-2.9,2,2,0,0,1,2.8-.7h0a2,2,0,0,1-1,3.8Zm0-3.1a1.1,1.1,0,0,0-.9.5.8.8,0,0,0-.1.8c0,.3.2.5.5.7a1,1,0,0,0,1.4-.4,1.1,1.1,0,0,0-.4-1.5Z"/><path class="cls-2" d="M92.5,32a1.9,1.9,0,0,1-1-.3,2.1,2.1,0,0,1-.8-2.8,2,2,0,0,1,2.8-.8h0a2,2,0,0,1,.8,2.8A2.1,2.1,0,0,1,92.5,32Zm0-3.2a1,1,0,0,0-.9.6.8.8,0,0,0-.1.8c.1.2.2.5.5.6a1,1,0,0,0,1.4-.4A.9.9,0,0,0,93,29Z"/><path class="cls-2" d="M49.8,18.6a1.9,1.9,0,0,1-1-.3,2.1,2.1,0,0,1-.8-2.8,2.2,2.2,0,0,1,2.9-.8,2.1,2.1,0,0,1,.9,1.3,1.6,1.6,0,0,1-.2,1.5,1.9,1.9,0,0,1-1.2,1Zm0-3.2a1,1,0,0,0-.9.6.8.8,0,0,0-.1.8c.1.3.2.5.5.6a.8.8,0,0,0,.8.1.6.6,0,0,0,.6-.5.8.8,0,0,0,.1-.8.8.8,0,0,0-.4-.6Z"/><path class="cls-2" d="M76.7,4.1l-1-.2A2.2,2.2,0,0,1,74.9,1,2.4,2.4,0,0,1,76.2.1a1.8,1.8,0,0,1,1.6.2,2.2,2.2,0,0,1,.9,1.2,1.8,1.8,0,0,1-.2,1.6A2,2,0,0,1,76.7,4.1Zm0-3.1h-.2a1.8,1.8,0,0,0-.7.5A1.1,1.1,0,0,0,76.2,3a1.1,1.1,0,0,0,1.5-.4,1.9,1.9,0,0,0,.1-.8,1.8,1.8,0,0,0-.5-.7h-.6Z"/><path class="cls-2" d="M93.2,68.8a1.8,1.8,0,0,1-2-1.5,1.8,1.8,0,0,1,.2-1.6,1.9,1.9,0,0,1,1.2-.9,1.8,1.8,0,0,1,1.6.2h0a2.1,2.1,0,0,1,.8,2.8A2,2,0,0,1,93.2,68.8Zm0-3.1h-.3a1.8,1.8,0,0,0-.7.5,2.8,2.8,0,0,0-.1.9,1.5,1.5,0,0,0,.5.6,1.1,1.1,0,0,0,1.5-.4,1,1,0,0,0-.4-1.4h0Z"/><path class="cls-2" d="M100,85.9l-.4-.2L88.3,74.4H73a.5.5,0,0,1,0-1H88.5l.4.2L100.3,85a.5.5,0,0,1,0,.7Z"/><path class="cls-2" d="M78.5,106l-.3-.2L72,99.6a.5.5,0,0,1-.2-.4V86a.5.5,0,0,1,1,0V99l6.1,6.1a.5.5,0,0,1,0,.7Z"/><path class="cls-2" d="M87.2,94.2a.5.5,0,0,1-.5-.5V82.1h-10a.5.5,0,0,1,0-1H87.2a.5.5,0,0,1,.5.5V93.7A.5.5,0,0,1,87.2,94.2Z"/><path class="cls-2" d="M41.9,31.5a.5.5,0,0,1-.5-.5V19.7l-5.9-5.9a.5.5,0,1,1,.7-.7l6.1,6.1a.4.4,0,0,1,.1.3V31A.5.5,0,0,1,41.9,31.5Z"/><path class="cls-2" d="M4.7,52.2H4.4a.6.6,0,0,1-.1-.7L10,44.2a.5.5,0,0,1,.4-.2H24.1a.5.5,0,0,1,.5.5.5.5,0,0,1-.5.5H10.6L5.1,52A.5.5,0,0,1,4.7,52.2Z"/><path class="cls-2" d="M24.1,38.4H5.8a.5.5,0,1,1,0-1H24.1a.5.5,0,0,1,0,1Z"/><path class="cls-2" d="M68.1,36.5a.5.5,0,0,1-.5-.5V19.1a.5.5,0,1,1,1,0V36A.5.5,0,0,1,68.1,36.5Z"/><path class="cls-2" d="M64.5,103a.5.5,0,0,1-.5-.5V83.8a.5.5,0,0,1,.5-.5.5.5,0,0,1,.5.5v18.7A.5.5,0,0,1,64.5,103Z"/><path class="cls-2" d="M23.4,58.8H11.7a.5.5,0,0,1-.5-.5.5.5,0,0,1,.5-.5H23.4a.5.5,0,0,1,.5.5A.5.5,0,0,1,23.4,58.8Z"/><path class="cls-2" d="M23.4,73.7H11.7a.5.5,0,0,1-.4-.2L2.8,64.4a.5.5,0,0,1,.7-.7l8.4,9H23.4a.5.5,0,0,1,0,1Z"/><path class="cls-2" d="M19.4,106l-.4-.2a.4.4,0,0,1,.1-.7l8.7-6.9V83.8a.5.5,0,0,1,.5-.5.5.5,0,0,1,.5.5V98.5c0,.1,0,.2-.2.3l-8.9,7.1Z"/><path class="cls-2" d="M42.6,101a.5.5,0,0,1-.5-.5V85.8a.5.5,0,0,1,1,0v14.7A.5.5,0,0,1,42.6,101Z"/><path class="cls-2" d="M57,108h-.4l-7-7.1-.2-.3V88.7a.5.5,0,0,1,.5-.5.5.5,0,0,1,.5.5v11.6l6.9,6.9c.2.1.2.5,0,.7Z"/><path class="cls-2" d="M19.4,91.6H10.9a.5.5,0,0,1-.5-.5.6.6,0,0,1,.5-.5h8.2l4.6-7.9c.1-.3.4-.3.7-.2a.6.6,0,0,1,.2.7l-4.8,8.2Z"/><path class="cls-3" d="M81.4,39.7V35.2H78.3A4.3,4.3,0,0,0,74,31.1h0V26.7H69.5v4.4H66.8V26.7H62.3v4.4H59.4V26.7H54.9v4.4H52.2V26.7H47.7v4.4H44.8V26.7H40.3v4.4H37.6V26.7H33.1v4.4h-3V26.7H25.7v4.4h-.3a4.3,4.3,0,0,0-4.3,4.1H18.2v4.5h2.9v2.7H18.2v4.5h2.9v2.9H18.2v4.5h2.9V57H18.2v4.5h2.9v2.9H18.2v4.5h2.9v2.7H18.2v4.5h2.9V79H18.2v4.5h3.3A4.3,4.3,0,0,0,25.4,86h.3v3.8h4.4V86h3v3.8h4.5V86h2.7v3.8h4.5V86h2.9v3.8h4.5V86h2.7v3.8h4.5V86h2.9v3.8h4.5V86h2.7v3.8H74V86h0a4.3,4.3,0,0,0,3.9-2.5h3.5V79H78.3V76.1h3.1V71.6H78.3V68.9h3.1V64.4H78.3V61.5h3.1V57H78.3V54.3h3.1V49.8H78.3V46.9h3.1V42.4H78.3V39.7Z"/><path class="cls-4" d="M32,31.1H30.1V26.7H25.7v4.4h-.3a4.3,4.3,0,0,0-4.3,4.1H18.2v4.5h2.9v2.7H18.2v4.5h2.9v2.9H18.2v4.5h2.9V57H18.2v4.5h2.9v2.9H18.2v4.5h2.9v2.7H18.2v4.5h2.9V79H18.2v4.5h3.3A4.3,4.3,0,0,0,25.4,86h.3v3.8h4.4V86h3v3.8h4.5V86h2.7v3.8h4.5V86h2.9v3.8h4.5V86h2.7v3.8h4.5V86h2.7C41.2,75.7,31,53.6,32,31.1Z"/><path class="cls-5" d="M66.2,87.8l-3.9-1.7v3.7h4.5V88Z"/><path class="cls-2" d="M36.3,69.4c0-.1.1-.2.1-.3l6.4-20.8c.3-1,1.5-1.4,2.7-1.4s2.5.4,2.8,1.4l6.3,20.8a.4.4,0,0,1,.1.3c0,1-1.6,1.8-2.7,1.8a1.5,1.5,0,0,1-1.5-.9l-1.2-4.4H41.7l-1.2,4.4a1.4,1.4,0,0,1-1.5.9C37.9,71.2,36.3,70.4,36.3,69.4Zm12.1-6.8L45.5,52.5,42.6,62.6Z"/><path class="cls-2" d="M57,48.4c0-.9,1-1.3,2.1-1.3s2.1.4,2.1,1.3V69.8c0,.9-1,1.4-2.1,1.4S57,70.7,57,69.8Z"/><path class="cls-6" d="M69.4,37.4a1.7,1.7,0,0,1,1.2.6,3.6,3.6,0,0,1,.2,1,1.4,1.4,0,0,0,1.5,1.5A1.5,1.5,0,0,0,73.8,39a4.4,4.4,0,0,0-3.6-4.5,1.5,1.5,0,0,0-1.8,1.1,1.4,1.4,0,0,0,1,1.8Z"/><path class="cls-6" d="M71.1,44.7c.3,5.9.5,11.8.4,17.7a1.5,1.5,0,0,0,3,0c.1-5.9-.1-11.8-.4-17.7-.1-1.9-3.1-2-3,0Z"/></g></g></g></svg>