<svg xmlns="http://www.w3.org/2000/svg" viewBox="0 0 120.2 99.5"><defs><style>.cls-1{isolation:isolate;}.cls-2,.cls-3{fill:#9eb0c8;}.cls-3{opacity:0.15;}.cls-3,.cls-6,.cls-8{mix-blend-mode:multiply;}.cls-4{fill:#7791ad;}.cls-5{fill:#bac7d8;}.cls-6{fill:#c8d2e0;opacity:0.29;}.cls-7{fill:#f4ffff;}.cls-8{fill:#ebffff;}.cls-9{fill:#fa7758;}.cls-10{fill:#7bdff2;}.cls-11{fill:#d8dfe9;}.cls-12{fill:#edf2f7;opacity:0.28;}.cls-13{fill:#403d57;}</style></defs><g class="cls-1"><g id="Livello_2" data-name="Livello 2"><g id="OBJECTS"><rect class="cls-2" x="45.7" y="84.6" width="29.3" height="12.07"/><path class="cls-3" d="M75,89.9V84.6H45.7v6.7C55.4,90.7,65.2,90.3,75,89.9Z"/><rect class="cls-4" x="40.4" y="95.1" width="39.8" height="4.45"/><rect class="cls-5" width="120.2" height="86.39" rx="2.2"/><path class="cls-6" d="M117.9,0H83.3L14.7,86.4H117.9a2.2,2.2,0,0,0,2.3-2.2V2.2A2.2,2.2,0,0,0,117.9,0Z"/><rect class="cls-7" x="8.2" y="6.9" width="103.4" height="64.82"/><polygon class="cls-8" points="24.4 71.7 111.6 71.7 111.6 6.9 80.4 6.9 24.4 71.7"/><rect class="cls-9" x="22.1" y="40.5" width="5.1" height="13.65"/><rect class="cls-10" x="32.5" y="28" width="5.1" height="26.14"/><rect class="cls-11" x="43.1" y="33.8" width="5.1" height="20.36"/><path class="cls-12" d="M2.5,4.7a42.2,42.2,0,0,0,.3,7.1c.1,1.4,2.4,1.5,2.2,0a56.2,56.2,0,0,1-.3-7.1c.1-1.5-2.1-1.5-2.2,0Z"/><path class="cls-12" d="M2.7,18.2V41.3a1.1,1.1,0,1,0,2.2,0V18.2a1.1,1.1,0,1,0-2.2,0Z"/><path class="cls-13" d="M60.9,62a.4.4,0,0,1-.4-.4V16.3c0-.2.1-.3.4-.3a.3.3,0,0,1,.3.3V61.6C61.2,61.8,61.1,62,60.9,62Z"/><path class="cls-13" d="M50.8,54.5H17.9c-.2,0-.3-.2-.3-.4V20.2c0-.2.1-.4.3-.4a.4.4,0,0,1,.4.4V53.8H50.8c.2,0,.4.1.4.3A.4.4,0,0,1,50.8,54.5Z"/><path class="cls-13" d="M47.6,59.4H22.1a.4.4,0,1,1,0-.8H47.6a.4.4,0,0,1,0,.8Z"/><path class="cls-13" d="M98.3,21.6H71.5c-.2,0-.3-.2-.3-.4s.1-.4.3-.4H98.3a.4.4,0,0,1,0,.8Z"/><path class="cls-13" d="M98.3,25.6H71.5c-.2,0-.3-.2-.3-.4a.3.3,0,0,1,.3-.3H98.3c.2,0,.4.1.4.3A.4.4,0,0,1,98.3,25.6Z"/><path class="cls-13" d="M98.3,25.6H71.5c-.2,0-.3-.2-.3-.4a.3.3,0,0,1,.3-.3H98.3c.2,0,.4.1.4.3A.4.4,0,0,1,98.3,25.6Z"/><path class="cls-13" d="M98.3,29.6H71.5a.3.3,0,0,1-.3-.3c0-.2.1-.4.3-.4H98.3a.4.4,0,0,1,.4.4C98.7,29.5,98.5,29.6,98.3,29.6Z"/><path class="cls-13" d="M98.3,33.8H71.5c-.2,0-.3-.1-.3-.4a.3.3,0,0,1,.3-.3H98.3c.2,0,.4.1.4.3A.4.4,0,0,1,98.3,33.8Z"/><path class="cls-13" d="M98.3,33.8H71.5c-.2,0-.3-.1-.3-.4a.3.3,0,0,1,.3-.3H98.3c.2,0,.4.1.4.3A.4.4,0,0,1,98.3,33.8Z"/><path class="cls-13" d="M98.3,37.9H71.5c-.2,0-.3-.2-.3-.4s.1-.4.3-.4H98.3a.4.4,0,0,1,0,.8Z"/><path class="cls-13" d="M98.3,45.3H75.1c-.2,0-.4-.1-.4-.3a.4.4,0,0,1,.4-.4H98.3a.4.4,0,0,1,.4.4C98.7,45.2,98.5,45.3,98.3,45.3Z"/><path class="cls-13" d="M98.3,50.4H75.1c-.2,0-.4-.1-.4-.3a.4.4,0,0,1,.4-.4H98.3a.4.4,0,0,1,.4.4C98.7,50.3,98.5,50.4,98.3,50.4Z"/><path class="cls-13" d="M98.3,55.8H75.1a.4.4,0,0,1,0-.8H98.3a.4.4,0,0,1,0,.8Z"/><path class="cls-11" d="M73.7,45a1.1,1.1,0,0,1-1,1,1,1,0,0,1-1-1,1,1,0,0,1,1-1.1A1.1,1.1,0,0,1,73.7,45Z"/><circle class="cls-13" cx="19.1" cy="59" r="1"/><path class="cls-10" d="M73.7,50.1a1.1,1.1,0,0,1-1,1,1,1,0,0,1-1-1,1,1,0,0,1,1-1.1A1.1,1.1,0,0,1,73.7,50.1Z"/><path class="cls-9" d="M73.7,55.4a1,1,0,0,1-1,1,1,1,0,0,1,0-2A1,1,0,0,1,73.7,55.4Z"/></g></g></g></svg>