<svg xmlns="http://www.w3.org/2000/svg" viewBox="0 0 95.4 117.6"><defs><style>.cls-1{isolation:isolate;}.cls-2,.cls-3{fill:#bac7d8;}.cls-3{opacity:0.15;}.cls-3,.cls-5{mix-blend-mode:multiply;}.cls-4,.cls-5{fill:#d8dfe9;}.cls-5{opacity:0.23;}.cls-6{fill:#607182;}.cls-7{fill:#edf2f7;opacity:0.64;}.cls-8{fill:#7bdff2;opacity:0.35;}</style></defs><g class="cls-1"><g id="Livello_2" data-name="Livello 2"><g id="OBJECTS"><path class="cls-2" d="M41,17.8s1.1-9.2-5.7-12.1-14.6-.1-14.6-.1,7.5-9.3,18-3.9,7,17.9,7,17.9Z"/><path class="cls-3" d="M40,10.5a15.6,15.6,0,0,1,1,7.3l4.7,1.8a20.1,20.1,0,0,0,.4-7.6Z"/><path class="cls-2" d="M38.6,21.1s-7.4,5.6-13.4,1.2S17.7,9.8,17.7,9.8s-4.1,11.1,5.8,17.5,19-3.1,19-3.1Z"/><path class="cls-3" d="M38.6,21.1a16.4,16.4,0,0,1-6.4,2.7,29.1,29.1,0,0,1-2.4,2.7l-3,2.4c8.6,2.7,15.7-4.7,15.7-4.7Z"/><path class="cls-2" d="M39.6,23.6S63,58.7,74.2,61.1l8.3-7.8S72.8,37.8,43.8,20.5Z"/><path class="cls-3" d="M80.9,54.8l1.6-1.5S72.8,37.8,43.8,20.5l-1.5,1C51.9,30,77.5,52.2,80.9,54.8Z"/><path class="cls-2" d="M27.6,80.7S57.1,57.1,80.4,57.6c1.7,0,5.2,3.5,4.7,5.1-7.4,24.8-42.3,41-42.3,41Z"/><path class="cls-3" d="M73.1,67.1C60.1,75,46.6,83,32.1,87.5l10.7,16.2s34.9-16.2,42.3-41c.2-.7-.4-1.8-1.2-2.8C80.4,62.5,76.7,64.9,73.1,67.1Z"/><path class="cls-4" d="M51.1,91.6A19.6,19.6,0,0,0,35.3,72.4V65.5H27.9v6.9a20,20,0,0,0-7.2,3l-4.9-4.8-5.2,5.2,4.9,4.9a17.8,17.8,0,0,0-3,7.2H5.6v7.4h6.9a18.4,18.4,0,0,0,3,7.2l-4.9,4.9,5.2,5.2,4.9-4.9a18.4,18.4,0,0,0,7.2,3v6.9h7.4v-6.9A19.4,19.4,0,0,0,51.1,91.6Z"/><path class="cls-5" d="M40.5,74.2A30.8,30.8,0,0,1,37.6,93c-5.7,11.1-16.1,15.2-26.7,14.1l-.3.3,5.2,5.2,4.9-4.9a18.4,18.4,0,0,0,7.2,3v6.9h7.4v-6.9a19.5,19.5,0,0,0,5.2-36.5Z"/><circle class="cls-4" cx="78.8" cy="61.8" r="11.2" transform="translate(-17.6 34.6) rotate(-22.3)"/><path class="cls-4" d="M47,23.2a5.7,5.7,0,0,1-6.8,4.4,5.7,5.7,0,0,1,2.4-11.1A5.7,5.7,0,0,1,47,23.2Z"/><path class="cls-5" d="M87,54.2A15.3,15.3,0,0,1,85.6,59c-3.4,7.5-9.3,10.4-16,9.3A11.4,11.4,0,0,0,78.8,73,11.2,11.2,0,0,0,90,61.8,11.5,11.5,0,0,0,87,54.2Z"/><path class="cls-5" d="M42.6,16.5a5.4,5.4,0,0,0-1.8,0A9.9,9.9,0,0,1,42,21.4a9.4,9.4,0,0,1-2.6,5.9l.8.3a5.7,5.7,0,1,0,2.4-11.1Z"/><circle class="cls-6" cx="19.3" cy="98.4" r="1.6"/><circle class="cls-6" cx="17.4" cy="91.2" r="1.6"/><circle class="cls-6" cx="19.8" cy="84.1" r="1.6"/><path class="cls-6" d="M79.6,53A.8.8,0,0,1,78,53a.8.8,0,1,1,1.6,0Z"/><path class="cls-6" d="M39.6,23.9a.7.7,0,0,1-.7.8.7.7,0,0,1-.8-.8.7.7,0,0,1,.8-.7A.7.7,0,0,1,39.6,23.9Z"/><path class="cls-6" d="M44.5,18.8a.8.8,0,0,1-1.6,0,.8.8,0,0,1,1.6,0Z"/><path class="cls-6" d="M76.2,69.4a.8.8,0,1,1-1.6.2.8.8,0,0,1,.7-.9A.9.9,0,0,1,76.2,69.4Z"/><path class="cls-6" d="M73.2,66.9a.8.8,0,1,1-1.6.2.8.8,0,0,1,.7-.9A.7.7,0,0,1,73.2,66.9Z"/><path class="cls-6" d="M74.9,54.5a.8.8,0,0,1-.8.8.7.7,0,0,1-.8-.8.8.8,0,0,1,.8-.8A.9.9,0,0,1,74.9,54.5Z"/><path class="cls-7" d="M71.3,63.5a7.2,7.2,0,0,1,1.3-5.3c.6-.7-.7-1.5-1.3-.7a8.1,8.1,0,0,0-1.4,6.4c.1,1,1.6.6,1.4-.4Z"/><path class="cls-7" d="M39.1,20.9a.7.7,0,0,1,.2-.6c.7-.7-.3-1.8-1-1.1a2.3,2.3,0,0,0-.7,1.7.8.8,0,1,0,1.5,0Z"/><path class="cls-7" d="M24.4,81.1a9.4,9.4,0,0,1,3.5-2c1.4-.5.8-2.7-.6-2.2a17,17,0,0,0-4.5,2.6c-1.1,1,.5,2.5,1.6,1.6Z"/><path class="cls-7" d="M31.9,77.9a14.9,14.9,0,0,1,4.7.1c1.4.3,2-1.8.6-2.1a16.7,16.7,0,0,0-5.9-.2c-1.5.3-.8,2.4.6,2.2Z"/><path class="cls-8" d="M2.8,76.5A35.4,35.4,0,0,1,15.7,64.2c1.7-.9.2-3.5-1.5-2.6A38.3,38.3,0,0,0,.2,75c-1,1.6,1.6,3.1,2.6,1.5Z"/><path class="cls-8" d="M8.2,59.7,13,57.6a1.5,1.5,0,0,0,.6-2.1,1.7,1.7,0,0,0-2.1-.5L6.7,57.1a1.5,1.5,0,0,0-.5,2,1.5,1.5,0,0,0,2,.6Z"/><path class="cls-8" d="M64.3,25.9C70.8,32,77,38.3,82.9,44.9c1.3,1.4,3.5-.7,2.2-2.1-6-6.6-12.2-13-18.7-19-1.4-1.3-3.6.8-2.1,2.1Z"/><path class="cls-8" d="M81.1,30.7A72.4,72.4,0,0,1,92.5,43.4c1.1,1.6,3.7.1,2.6-1.5A75,75,0,0,0,83.2,28.6c-1.4-1.3-3.5.8-2.1,2.1Z"/><path class="cls-8" d="M86.9,48.9a26.2,26.2,0,0,1,5.5,6.4c1,1.6,3.6.1,2.6-1.5a29.4,29.4,0,0,0-6-7.1c-1.5-1.2-3.6.9-2.1,2.2Z"/></g></g></g></svg>