<svg xmlns="http://www.w3.org/2000/svg" viewBox="0 0 114.5 110"><defs><style>.cls-1{isolation:isolate;}.cls-2{fill:#bac7d8;}.cls-3{fill:#d8dfe9;opacity:0.27;mix-blend-mode:multiply;}.cls-4{fill:#7bdff2;}.cls-5{fill:#fa7758;}.cls-6{fill:#edf2f7;opacity:0.24;}</style></defs><g class="cls-1"><g id="Livello_2" data-name="Livello 2"><g id="OBJECTS"><path class="cls-2" d="M62.1,63.1l7.7-2.2-2.5-8.7-7.7,2.3a23.5,23.5,0,0,0-5.7-7.1l3.9-7.1L49.9,36,46,43.1a20.9,20.9,0,0,0-9-1l-2.2-7.8-8.7,2.5,2.3,7.8a21.8,21.8,0,0,0-7.1,5.6l-7.1-3.9L9.9,54.2,17,58.1a22.5,22.5,0,0,0-1,9L8.2,69.4,10.7,78l7.8-2.3a21.8,21.8,0,0,0,5.6,7.1l-3.9,7.1,7.9,4.3L32,87.1a21,21,0,0,0,9,1l2.3,7.8,8.6-2.5-2.3-7.8A21.8,21.8,0,0,0,56.7,80l7.1,3.9L68.2,76l-7.1-3.9A24.5,24.5,0,0,0,62.1,63.1ZM31.9,67.2a7.5,7.5,0,0,1,5-9.3,7.5,7.5,0,1,1,4.2,14.4A7.5,7.5,0,0,1,31.9,67.2Z"/><path class="cls-2" d="M101.9,26.3l5.6-3.7-4-6.2L97.9,20a18.4,18.4,0,0,0-6.2-4.2l1.4-6.6L85.9,7.6l-1.5,6.6a18.9,18.9,0,0,0-7.3,1.4L73.4,9.9,67.2,14l3.6,5.6a20,20,0,0,0-4.2,6.2L60,24.3l-1.5,7.3L65,33a19.1,19.1,0,0,0,1.4,7.4L60.7,44l4.1,6.3,5.6-3.7a18.7,18.7,0,0,0,6.2,4.3l-1.5,6.5L82.4,59l1.4-6.6a17.3,17.3,0,0,0,7.4-1.3l3.6,5.6,6.3-4-3.7-5.6a18.7,18.7,0,0,0,4.3-6.2l6.5,1.4,1.6-7.2-6.5-1.5A18.9,18.9,0,0,0,101.9,26.3ZM79,36.7a6.1,6.1,0,1,1,8.5,1.8A6.2,6.2,0,0,1,79,36.7Z"/><path class="cls-2" d="M104.8,80.1l5.1-.6-.6-5.8-5.2.6a15.8,15.8,0,0,0-2.8-5.1l3.2-4L100,61.6l-3.2,4.1a14.3,14.3,0,0,0-5.6-1.6l-.6-5.2-5.8.7.6,5.1a14.4,14.4,0,0,0-5.1,2.9l-4-3.3-3.6,4.5,4.1,3.3a13.4,13.4,0,0,0-1.6,5.6l-5.2.6.6,5.7,5.2-.6a15.8,15.8,0,0,0,2.8,5.1l-3.2,4.1,4.5,3.6,3.3-4.1a15.1,15.1,0,0,0,5.6,1.6l.6,5.1,5.7-.6L94.5,93a15.8,15.8,0,0,0,5.1-2.8l4.1,3.2,3.5-4.5-4-3.2A17.3,17.3,0,0,0,104.8,80.1Zm-19.6-.7a4.8,4.8,0,1,1,5.3,4.2A4.8,4.8,0,0,1,85.2,79.4Z"/><path class="cls-3" d="M43.6,71a8.5,8.5,0,0,1-2.5,1.3,7.5,7.5,0,0,1-9.2-5.1,7.3,7.3,0,0,1,2.3-7.8c-3-7.5-2.8-16.3-1.5-24.5l-6.6,1.9,2.3,7.8a21.8,21.8,0,0,0-7.1,5.6l-7.1-3.9L9.9,54.2,17,58.1a22.5,22.5,0,0,0-1,9L8.2,69.4,10.7,78l7.8-2.3a21.8,21.8,0,0,0,5.6,7.1l-3.9,7.1,7.9,4.3L32,87.1a21,21,0,0,0,9,1l2.3,7.8,8.6-2.5-2.3-7.8A21.8,21.8,0,0,0,56.7,80l7.1,3.9L68.2,76l-2.3-1.2C59.2,77.7,49.6,75.1,43.6,71Z"/><path class="cls-3" d="M100.1,43.8a30.8,30.8,0,0,1-13.5-2.6,17.4,17.4,0,0,1-3.3-1.8A6.1,6.1,0,0,1,79,36.7l-.7-1.4c-5.9-6.4-7.2-15.5-6-24.6L67.2,14l3.6,5.6a20,20,0,0,0-4.2,6.2L60,24.3l-1.5,7.3L65,33a19.1,19.1,0,0,0,1.4,7.4L60.7,44l4.1,6.3,5.6-3.7a18.7,18.7,0,0,0,6.2,4.3l-1.5,6.5L82.4,59l1.4-6.6a17.3,17.3,0,0,0,7.4-1.3l3.6,5.6,6.3-4-3.7-5.6A14,14,0,0,0,100.1,43.8Z"/><path class="cls-3" d="M91.3,83.5h-.8a4.8,4.8,0,0,1-5.3-4.2,4.7,4.7,0,0,1,.1-1.7,21.1,21.1,0,0,1-4.1-10.8l-.9.7-4-3.3-3.6,4.5,4.1,3.3a13.4,13.4,0,0,0-1.6,5.6l-5.2.6.6,5.7,5.2-.6a15.8,15.8,0,0,0,2.8,5.1l-3.2,4.1,4.5,3.6,3.3-4.1a15.1,15.1,0,0,0,5.6,1.6l.6,5.1,5.7-.6L94.5,93a15.8,15.8,0,0,0,5.1-2.8l4.1,3.2,2.8-3.5A38,38,0,0,1,91.3,83.5Z"/><circle class="cls-4" cx="46.2" cy="3.5" r="1.3"/><circle class="cls-4" cx="2.3" cy="85" r="2.3"/><circle class="cls-4" cx="104.1" cy="2.3" r="2.3"/><circle class="cls-5" cx="34.5" cy="107.8" r="2.3"/><circle class="cls-4" cx="64.4" cy="95.9" r="1.3"/><circle class="cls-5" cx="19.1" cy="32.2" r="1.3"/><circle class="cls-5" cx="113.2" cy="52.6" r="1.3"/><path class="cls-6" d="M88.1,19a9.5,9.5,0,0,1,5.6,3.5c1,1.2,2.7-.5,1.7-1.7a11.8,11.8,0,0,0-6.6-4.1c-1.5-.4-2.2,1.9-.7,2.3Z"/><path class="cls-6" d="M95.6,25.2A10.5,10.5,0,0,1,96.3,36c-.7,1.4,1.3,2.6,2,1.2A13,13,0,0,0,97.7,24c-.8-1.3-2.9-.1-2.1,1.2Z"/><path class="cls-6" d="M41.5,47.3a16.6,16.6,0,0,1,9.1,4.4c1.1,1,2.8-.7,1.7-1.7a18.6,18.6,0,0,0-10.1-5c-1.5-.2-2.2,2.1-.7,2.3Z"/><path class="cls-6" d="M53.4,54.2c2.8,4.1,1.8,10.4,1.3,15-.1,1.5,2.3,1.5,2.4,0,.5-5.1,1.5-11.7-1.7-16.2-.9-1.2-2.9,0-2,1.2Z"/><path class="cls-6" d="M89.1,68.8a6.7,6.7,0,0,1,6.4,2.1,1.2,1.2,0,0,0,1.7-1.7,9.1,9.1,0,0,0-8.7-2.7c-1.5.3-.9,2.6.6,2.3Z"/><path class="cls-6" d="M98.1,74.8a10.7,10.7,0,0,1,.3,8.4c-.6,1.4,1.7,2,2.3.6a12.9,12.9,0,0,0-.5-10.2c-.7-1.4-2.7-.2-2.1,1.2Z"/></g></g></g></svg>